# xmcd CD database file
#
# Track frame offsets:
#	150
#	20734
#	41912
#	68459
#	91083
#	112085
#	133157
#	152698
#	174260
#	196764
#	219372
#	240478
#	263388
#	284424
#	304227
#
# Disc length: 4380 seconds
#
# Revision: 0
# Processed by: cddbd v1.5.1PL2 Copyright (c) Steve Scherf et al.
# Submitted via: CDex 1.51
#
DISCID=c8111a0f
DTITLE=石井竜也 - 石 〜Best of Best〜　ゲンキ盤
DYEAR=2005
DGENRE=J-Pop
TTITLE0=HI TENSION LOVE
TTITLE1=GOLDEN FISH ＆ SILVER FOX
TTITLE2=リズム
TTITLE3=夢 DE 愛魔性
TTITLE4=壮絶夜舞酒家（souzetu night club）
TTITLE5=朝日につづく道
TTITLE6=この世のHEAVEN
TTITLE7=花まつり
TTITLE8=HIP SHAKE！！
TTITLE9=花MORE 嵐MORE
TTITLE10=コ・ウ・カ・イ
TTITLE11=君はランバダンバンバ
TTITLE12=AFFECTION
TTITLE13=勝利！！
TTITLE14=道はある！
EXTD=YEAR: 2005
EXTT0=
EXTT1=
EXTT2=
EXTT3=
EXTT4=
EXTT5=
EXTT6=
EXTT7=
EXTT8=
EXTT9=
EXTT10=
EXTT11=
EXTT12=
EXTT13=
EXTT14=
PLAYORDER=
